<svg xmlns="http://www.w3.org/2000/svg" class="svgr" viewBox="0 0 333334 204585" shape-rendering="geometricPrecision" text-rendering="geometricPrecision" image-rendering="optimizeQuality" fill-rule="evenodd" clip-rule="evenodd" width="333334"  height="204585" ><path d="M10288 204585h116108s-22193-101264 51294-142269c16020-7790 67019-36890 150499 24839 2645-2205 5144-3969 5144-3969S256907 6908 171810 15432c-42916 3822-95532 42769-126396 94209-30381 50636-34987 93583-35124 94912l-3 32zm120518-29394c294 7789 1029 14109 1764 18519l17637 6319c-1323-5731-2646-12198-3527-19106l-15873-5732zM24251 133745l-16902-6173c-2792 6320-5878 13669-7348 17637l16902 6173c1910-4997 4996-12199 7348-17637zm44386-65696l-10435-9113c-3822 3674-7496 7349-10876 11023l11317 9700c3086-3968 6467-7936 9994-11610zm64374 69811l11905 9406c588-5732 1617-11464 3086-17196l-10582-8378c-1911 5439-3233 10876-4409 16167zm21311-47325l7055 10581c2498-3674 5438-7054 8672-10435l-6615-9994c-3380 3086-6467 6467-9112 9847zm-30129-66138l-6615-10141c-3674 1911-7495 3969-11463 6320l6760 10289c3822-2352 7496-4556 11318-6468zm66725 38654l3380 10141c4262-2057 8524-3821 12787-5144l-3234-9700c-4997 1470-9259 3086-12933 4703zm-7055-54086h1469L182393 0c-4556 0-9259 293-14109 881l2792 8671c4263-441 8524-588 12787-588zm54380 45856l-588 9259c4850 147 9700 735 14550 1764l588-9113c-4997-1029-9847-1616-14550-1911zm13963-31158l588-9847c-1323-735-4997-2498-14257-5144l-588 9700c4850 1617 9554 3381 14257 5291z" fill="#cc0000"></path></svg>